# xmcd
#
# Track frame offsets: 
#        180
#        25666
#        47830
#        72239
#        100895
#        121688
#        142466
#        163065
#        188215
#        204337
#
# Disc length: 2996 seconds
#
# Revision: 0
# Processed by: cddbd v1.5.2PL0 Copyright (c) Steve Scherf et al.
# Submitted via: ExactAudioCopy v1.0b3
#
DISCID=8d0bb20a
DTITLE=Huong Lan, Thanh Tuyen - Goi Nho Tinh Xua
DYEAR=1994
DGENRE=
TTITLE0=Thanh Tuyen - Tieng hat em con dau
TTITLE1=Huong Lan - Goi nho tinh xua
TTITLE2=Thanh Tuyen, Nguyen Son - To hong
TTITLE3=Huong Lan - Loi thu xua
TTITLE4=Huong Lan - Gap nhau
TTITLE5=Huong Lan - Con sao sau
TTITLE6=Thanh Tuyen - Chieu ve tren song O Mon
TTITLE7=Huong Lan - Huong toc ma non
TTITLE8=Thanh Tuyen - Chiec ao que huong
TTITLE9=Huong Lan - Co hang xom
EXTD=
EXTT0=
EXTT1=
EXTT2=
EXTT3=
EXTT4=
EXTT5=
EXTT6=
EXTT7=
EXTT8=
EXTT9=
PLAYORDER=
